<?xml version="1.0" encoding="UTF-8"?>
<!DOCTYPE svg PUBLIC "-//W3C//DTD SVG 1.1//EN" "http://www.w3.org/Graphics/SVG/1.1/DTD/svg11.dtd">
<svg xmlns="http://www.w3.org/2000/svg" version="1.1" width="128px" height="128px" style="shape-rendering:geometricPrecision; text-rendering:geometricPrecision; image-rendering:optimizeQuality; fill-rule:evenodd; clip-rule:evenodd" xmlns:xlink="http://www.w3.org/1999/xlink">
<g><path style="opacity:1" fill="#fdfefe" d="M -0.5,-0.5 C 42.1667,-0.5 84.8333,-0.5 127.5,-0.5C 127.5,42.1667 127.5,84.8333 127.5,127.5C 84.8333,127.5 42.1667,127.5 -0.5,127.5C -0.5,84.8333 -0.5,42.1667 -0.5,-0.5 Z"/></g>
<g><path style="opacity:1" fill="#538fcc" d="M 105.5,93.5 C 104.527,93.9867 103.527,94.4867 102.5,95C 109.158,95.4996 115.825,95.6663 122.5,95.5C 124.104,96.287 124.771,97.6203 124.5,99.5C 100.833,99.5 77.1667,99.5 53.5,99.5C 53.2322,97.901 53.5655,96.5676 54.5,95.5C 61.175,95.6663 67.8417,95.4996 74.5,95C 72.4817,94.4954 70.4817,93.9954 68.5,93.5C 59.0147,92.1911 58.0147,88.5244 65.5,82.5C 73.1667,82.5 80.8333,82.5 88.5,82.5C 88.5,80.8333 88.5,79.1667 88.5,77.5C 83.5,77.5 78.5,77.5 73.5,77.5C 73.2301,63.4151 76.7301,50.0818 84,37.5C 85.314,35.1878 86.9806,33.1878 89,31.5C 89.772,31.6448 90.4387,31.9781 91,32.5C 91.4999,49.1633 91.6666,65.83 91.5,82.5C 100.173,82.3336 108.84,82.5002 117.5,83C 118.517,84.0495 118.684,85.2161 118,86.5C 114.403,89.8644 110.236,92.1978 105.5,93.5 Z"/></g>
<g><path style="opacity:1" fill="#5790cd" d="M 43.5,34.5 C 45.1667,34.5 46.8333,34.5 48.5,34.5C 47.736,37.787 45.9027,40.4537 43,42.5C 42.1667,49.6667 45.3333,52.8333 52.5,52C 54.6667,49.8333 56.8333,47.6667 59,45.5C 61.4416,55.1369 57.775,61.1369 48,63.5C 36.591,60.4397 31.591,53.1064 33,41.5C 35.663,37.7623 39.163,35.429 43.5,34.5 Z"/></g>
<g><path style="opacity:1" fill="#5b93ce" d="M 30.5,52.5 C 33.3111,57.4759 37.3111,61.3093 42.5,64C 32.6149,71.8782 23.2815,80.5449 14.5,90C 7.0546,94.221 3.22127,92.0544 3,83.5C 11.6361,73.863 20.6361,64.5297 30,55.5C 30.4828,54.552 30.6495,53.552 30.5,52.5 Z"/></g>
<g><path style="opacity:1" fill="#5d94ce" d="M 96.5,53.5 C 97.9778,53.238 99.3112,53.5713 100.5,54.5C 102.331,60.1665 104.831,65.4998 108,70.5C 108.977,72.74 109.477,75.0733 109.5,77.5C 104.901,77.8 100.401,77.4667 96,76.5C 95.2019,68.754 95.3686,61.0873 96.5,53.5 Z"/></g>
<g><path style="opacity:1" fill="#b6d0e9" d="M 73.5,77.5 C 78.5,77.5 83.5,77.5 88.5,77.5C 88.5,79.1667 88.5,80.8333 88.5,82.5C 80.8333,82.5 73.1667,82.5 65.5,82.5C 72.6476,81.5084 79.9809,81.175 87.5,81.5C 87.5,80.5 87.5,79.5 87.5,78.5C 82.6367,78.8195 77.97,78.4861 73.5,77.5 Z"/></g>
<g><path style="opacity:1" fill="#e6eff7" d="M 8.5,83.5 C 10.9118,83.6941 11.9118,85.0274 11.5,87.5C 10.1667,87.5 8.83333,87.5 7.5,87.5C 7.43255,86.0413 7.76589,84.7079 8.5,83.5 Z"/></g>
<g><path style="opacity:1" fill="#b4cee9" d="M 68.5,93.5 C 70.4817,93.9954 72.4817,94.4954 74.5,95C 67.8417,95.4996 61.175,95.6663 54.5,95.5C 59.1667,94.8333 63.8333,94.1667 68.5,93.5 Z"/></g>
<g><path style="opacity:1" fill="#b3cde8" d="M 105.5,93.5 C 111.167,94.1667 116.833,94.8333 122.5,95.5C 115.825,95.6663 109.158,95.4996 102.5,95C 103.527,94.4867 104.527,93.9867 105.5,93.5 Z"/></g>
</svg>
